HIERARCHY
ROOT pelvis
{
  OFFSET 0 100 0
  CHANNELS 6 Xposition Yposition Zposition Zrotation Xrotation Yrotation
  JOINT pelvis_right_femur
  {
    OFFSET -10.78128 -3.44521 -0.5502486
    CHANNELS 3 Zrotation Xrotation Yrotation
    JOINT right_femur_tibia
    {
      OFFSET -0.8047443 -44.0398 -0.1307829
      CHANNELS 3 Zrotation Xrotation Yrotation
      JOINT right_tibia_foot
      {
        OFFSET 3.006224 -47.83518 -5
        CHANNELS 3 Zrotation Xrotation Yrotation
        End Site
        {
          OFFSET 0 -5 15
        }
      }
    }
  }
  JOINT pelvis_left_femur
  {
    OFFSET 10.78128 -3.44521 -0.5502486
    CHANNELS 3 Zrotation Xrotation Yrotation
    JOINT left_femur_tibia
    {
      OFFSET 0.8047443 -44.0398 -0.1307829
      CHANNELS 3 Zrotation Xrotation Yrotation
      JOINT left_tibia_foot
      {
        OFFSET -4.370144 -48.10324 -4.275266
        CHANNELS 3 Zrotation Xrotation Yrotation
        End Site
        {
          OFFSET 0 -5 15
        }
      }
    }
  }
  JOINT pelvis_spine1
  {
    OFFSET 0 6.468898 -3.129235
    CHANNELS 3 Zrotation Xrotation Yrotation
    JOINT spine1
    {
      OFFSET 0 23.15396 4.99043
      CHANNELS 3 Zrotation Xrotation Yrotation
      JOINT spine2
      {
        OFFSET 0 20.79997 -5.064912
        CHANNELS 3 Zrotation Xrotation Yrotation
        JOINT neck
        {
          OFFSET 0 14.38658 9.616178
          CHANNELS 3 Zrotation Xrotation Yrotation
          End Site
          {
            OFFSET 0 20 0
          }
        }
      }
      JOINT right_manubrium
      {
        OFFSET -5.722621 16.35077 3.967754
        CHANNELS 3 Zrotation Xrotation Yrotation
        JOINT right_clavicle
        {
          OFFSET -13.16364 1.694482 -4.693211
          CHANNELS 3 Zrotation Xrotation Yrotation
          JOINT right_humerus
          {
            OFFSET -28.5034 -0.3100689 -2.792744
            CHANNELS 3 Zrotation Xrotation Yrotation
            JOINT right_radius
            {
              OFFSET -25.15693 0.02248979 -1.271978
              CHANNELS 3 Zrotation Xrotation Yrotation
              End Site
              {
                OFFSET -15 0 0
              }
            }
          }
        }
      }
      JOINT left_manubrium
      {
        OFFSET 5.722621 16.35077 3.967754
        CHANNELS 3 Zrotation Xrotation Yrotation
        JOINT left_clavicle
        {
          OFFSET 13.16364 1.694482 -4.693211
          CHANNELS 3 Zrotation Xrotation Yrotation
          JOINT left_humerus
          {
            OFFSET 29.39168 -1.063119 -2.237045
            CHANNELS 3 Zrotation Xrotation Yrotation
            JOINT left_radius
            {
              OFFSET 24.59957 -0.9528479 0.9047498
              CHANNELS 3 Zrotation Xrotation Yrotation
              End Site
              {
                OFFSET 15 -0 -0
              }
            }
          }
        }
      }
    }
  }
}
MOTION
Frames: 20
Frame Time: 0.0416666666667
21.35256 103.2224 254.9555 1.277593 -7.608561 0.60524 2.117741 13.66836 3.584571 1.285493e-08 28.78573 -1.55967e-08 -3.433381 -11.12574 -2.418159 -2.256326 -16.24867 -8.857298 -5.200586e-09 24.07061 4.704732e-08 -3.199572 -7.689711 19.58026 -2.117399 -0.4473074 6.612997 -0.01322345 10.38503 -4.072277 1.425508 23.22605 5.493068 2.203772 -18.97965 6.984707 1.269468 -21.95382 11.43418 84.53253 26.27087 -9.512252 -1.924231e-09 9.802701e-10 20.54603 -22.82496 11.21307 13.55306 3.254004 -16.52348 -3.553439 -95.4071 23.71479 27.19763 7.436407e-09 -2.480914e-09 -8.936635 -1.53164 10.06085 14.56077
22.08889 103.3231 260.351 1.194958 -7.349727 0.3385016 2.231078 11.03936 3.486366 1.286077e-08 28.55447 -1.571798e-08 -3.581706 -10.69638 -2.627671 -2.627763 -13.92838 -9.361288 -5.442611e-09 24.00099 4.744675e-08 -3.033655 -8.45927 19.41618 -2.151908 -0.513227 6.337011 0.1612499 10.38557 -4.399478 1.406488 23.27684 5.628758 2.273122 -19.24452 7.117771 1.412618 -21.62305 11.46291 85.38539 26.60958 -10.6365 -2.004578e-09 1.01835e-09 19.78119 -22.37412 11.24216 13.16405 3.445444 -17.00727 -3.635975 -95.21263 23.92662 26.25164 7.522392e-09 -2.450767e-09 -10.09838 -1.18078 10.32054 14.19687
22.71703 103.417 265.6876 1.10217 -6.982995 0.1195043 2.372598 7.476176 3.35856 1.283079e-08 28.18653 -1.583934e-08 -3.771059 -10.09639 -2.901795 -3.085233 -10.77279 -9.995022 -5.734332e-09 23.85978 4.788019e-08 -2.810447 -9.479313 19.1609 -2.194718 -0.6005215 5.952724 0.3950207 10.36437 -4.831279 1.380218 23.2991 5.800242 2.360393 -19.56334 7.28221 1.59728 -21.13518 11.47561 86.36628 27.0176 -12.0994 -2.107903e-09 1.070096e-09 18.71193 -21.71938 11.25968 12.60922 3.696943 -17.62547 -3.738505 -94.74612 24.21221 24.89101 7.625503e-09 -2.406943e-09 -11.64314 -0.7001828 10.64695 13.67537
23.22068 103.4994 270.9305 1.00052 -6.504309 -0.03862211 2.528621 3.068099 3.20537 1.272628e-08 27.6328 -1.591291e-08 -3.98489 -9.321779 -3.223806 -3.584093 -6.851401 -10.7036 -6.02959e-09 23.60034 4.822111e-08 -2.537844 -10.69992 18.78408 -2.240413 -0.7049201 5.458831 0.6789269 10.29893 -5.344111 1.347279 23.24241 5.989727 2.455332 -19.88528 7.45627 1.809564 -20.46029 11.44425 87.25231 27.44874 -13.79198 -2.225759e-09 1.133877e-09 17.33008 -20.83106 11.24094 11.8737 3.99404 -18.32226 -3.849509 -93.79964 24.55174 23.06039 7.728609e-09 -2.3456e-09 -13.50037 -0.09735006 11.00465 12.98009
23.60276 103.5623 276.0568 0.9032778 -5.992429 -0.1309221 2.667353 -1.412742 3.053195 1.254991e-08 26.96483 -1.590812e-08 -4.180341 -8.500063 -3.532972 -4.025884 -2.847716 -11.35058 -6.260264e-09 23.24626 4.835952e-08 -2.266501 -11.89734 18.33547 -2.27918 -0.8072637 4.937092 0.9613069 10.19067 -5.842259 1.313777 23.09499 6.157957 2.537312 -20.13537 7.601431 2.009074 -19.69838 11.36233 87.79859 27.82364 -15.38372 -2.334821e-09 1.198487e-09 15.86244 -19.84551 11.17559 11.07475 4.28134 -18.95794 -3.945929 -92.44141 24.86193 21.03454 7.807811e-09 -2.2745e-09 -15.33087 0.5241607 11.31787 12.22025
23.86902 103.6056 281.0523 0.8117369 -5.46536 -0.1568679 2.789369 -5.869669 2.906334 1.232712e-08 26.22632 -1.584994e-08 -4.35807 -7.658442 -3.826985 -4.41291 1.146874 -11.9419 -6.441594e-09 22.83035 4.835059e-08 -2.004269 -13.059 17.84392 -2.312607 -0.9063607 4.40425 1.23712 10.05308 -6.320967 1.280843 22.88502 6.307893 2.608401 -20.32972 7.723262 2.197068 -18.88726 11.24519 88.09499 28.15916 -16.87707 -2.435324e-09 1.263315e-09 14.35826 -18.8083 11.07211 10.24528 4.556873 -19.53904 -4.029861 -90.81017 25.11748 18.89425 7.869749e-09 -2.197574e-09 -17.11108 1.149528 11.59103 11.42647
24.02693 103.6303 285.9055 0.7257069 -4.933465 -0.1175585 2.893419 -10.2189 2.76487 1.206431e-08 25.43172 -1.574184e-08 -4.515201 -6.813102 -4.100845 -4.745598 5.056303 -12.47398 -6.572428e-09 22.36091 4.819665e-08 -1.756729 -14.16354 17.31798 -2.340073 -1.000445 3.870441 1.500938 9.889199 -6.771169 1.24925 22.61695 6.436767 2.666964 -20.46519 7.819367 2.371053 -18.04267 11.09566 88.13383 28.45935 -18.24292 -2.525449e-09 1.326872e-09 12.84613 -17.74032 10.93116 9.402288 4.815689 -20.05494 -4.10037 -88.94048 25.29803 16.67928 7.913485e-09 -2.115326e-09 -18.80789 1.766235 11.81893 10.61467
24.09233 103.6363 290.6357 0.6529931 -4.457879 -0.01771777 2.985692 -14.16023 2.648599 1.184896e-08 24.74258 -1.567117e-08 -4.659043 -6.056288 -4.35103 -5.023491 8.596052 -12.96025 -6.71084e-09 21.96208 4.811714e-08 -1.540466 -15.18028 16.86609 -2.368288 -1.086462 3.392444 1.74049 9.750565 -7.185064 1.221248 22.40037 6.560412 2.725037 -20.61043 7.916348 2.534555 -17.30005 10.97265 88.29889 28.73904 -19.53024 -2.608761e-09 1.387687e-09 11.49444 -16.79907 10.80188 8.655745 5.054494 -20.54425 -4.165968 -87.3653 25.41757 14.70541 7.964408e-09 -2.046679e-09 -20.36229 2.327655 12.03154 9.890694
24.07752 103.6287 295.2382 0.5869742 -4.007042 0.1363404 3.055802 -17.73373 2.538076 1.160216e-08 24.03261 -1.554822e-08 -4.772825 -5.342857 -4.564475 -5.244392 11.81709 -13.36273 -6.785511e-09 21.52727 4.787941e-08 -1.350984 -16.06769 16.40011 -2.387523 -1.161625 2.943138 1.951846 9.591849 -7.541016 1.196316 22.13128 6.652523 2.764765 -20.67985 7.977685 2.672398 -16.56554 10.82164 88.14867 28.97185 -20.58741 -2.675672e-09 1.441777e-09 10.21784 -15.8816 10.64292 7.94067 5.259559 -20.92873 -4.213866 -85.62218 25.45217 12.77916 7.990048e-09 -1.974299e-09 -21.7252 2.841527 12.18266 9.193537
24.00136 103.6073 299.7369 0.5350949 -3.634188 0.3365405 3.112665 -20.70567 2.451246 1.140603e-08 23.45294 -1.545706e-08 -4.867173 -4.752667 -4.742301 -5.414658 14.49477 -13.70066 -6.85542e-09 21.17491 4.770291e-08 -1.19842 -16.81185 16.02158 -2.40487 -1.224359 2.571465 2.127405 9.46294 -7.838853 1.175969 21.91668 6.731434 2.799548 -20.74541 8.032143 2.789756 -15.96274 10.70009 88.07259 29.16988 -21.48572 -2.73156e-09 1.488359e-09 9.16265 -15.1289 10.50655 7.353233 5.431655 -21.25613 -4.253914 -84.21865 25.44738 11.18844 8.016059e-09 -1.916445e-09 -22.86448 3.270373 12.30855 8.617437
23.88891 103.5726 304.1711 0.5036356 -3.3788 0.5704321 3.157893 -22.82284 2.398029 1.129689e-08 23.08764 -1.542791e-08 -4.940946 -4.347059 -4.874799 -5.532053 16.39633 -13.96065 -6.933804e-09 20.96486 4.766934e-08 -1.092078 -17.36304 15.78583 -2.421398 -1.270441 2.315566 2.254798 9.388268 -8.061221 1.161677 21.80444 6.798611 2.831805 -20.82686 8.086006 2.880193 -15.56784 10.63434 88.19962 29.31999 -22.19336 -2.775219e-09 1.52387e-09 8.439546 -14.6305 10.42325 6.958208 5.560757 -21.52266 -4.28728 -83.40057 25.44737 10.12506 8.048257e-09 -1.882582e-09 -23.702 3.575849 12.41612 8.227856
23.77313 103.5234 308.6135 0.503607 -3.302089 0.8218486 3.205666 -23.8347 2.402626 1.137183e-08 23.11882 -1.556145e-08 -5.008994 -4.2178 -4.96572 -5.603198 17.27891 -14.1676 -7.09225e-09 21.04137 4.805108e-08 -1.039726 -17.71403 15.81657 -2.446259 -1.298709 2.231636 2.327689 9.428691 -8.212804 1.154744 21.92641 6.878537 2.879548 -21.01591 8.176836 2.950046 -15.52761 10.69482 89.02314 29.42235 -22.81466 -2.814355e-09 1.548162e-09 8.217429 -14.55092 10.46166 6.865603 5.650273 -21.7936 -4.32631 -83.77855 25.54745 9.927299 8.118587e-09 -1.896446e-09 -24.21428 3.717958 12.55458 8.134123
23.68666 103.4636 313.109 0.5325321 -3.380921 1.072219 3.232204 -23.61678 2.442612 1.15348e-08 23.40057 -1.574011e-08 -5.040838 -4.336248 -4.985179 -5.613118 17.05206 -14.23866 -7.229803e-09 21.27288 4.852786e-08 -1.047621 -17.76093 16.01063 -2.464569 -1.301434 2.303508 2.329044 9.526922 -8.243799 1.155824 22.14632 6.928473 2.914782 -21.18563 8.248662 2.972595 -15.74435 10.81106 89.91304 29.44074 -23.07745 -2.831753e-09 1.552823e-09 8.438352 -14.79036 10.56418 7.020412 5.669926 -21.93648 -4.350544 -84.77557 25.66618 10.40778 8.180051e-09 -1.935295e-09 -24.26098 3.681198 12.64773 8.284374
23.65857 103.3968 317.6861 0.587169 -3.592197 1.304414 3.227844 -22.22292 2.505286 1.173925e-08 23.85049 -1.591241e-08 -5.026467 -4.669197 -4.926706 -5.559443 15.7733 -14.15126 -7.306576e-09 21.5912 4.895795e-08 -1.115299 -17.48713 16.3108 -2.470793 -1.277599 2.511051 2.257484 9.654005 -8.143523 1.164813 22.39894 6.933028 2.926529 -21.28481 8.27949 2.941454 -16.15539 10.94874 90.60119 29.37699 -22.899 -2.82194e-09 1.536239e-09 9.040063 -15.28073 10.69833 7.379481 5.613169 -21.90701 -4.352827 -86.10036 25.75072 11.42773 8.214506e-09 -1.986983e-09 -23.8236 3.474606 12.66634 8.636114
23.72669 103.3226 322.3919 0.6776217 -3.987749 1.497935 3.187778 -19.29636 2.606425 1.203222e-08 24.57148 -1.611663e-08 -4.959009 -5.297945 -4.773071 -5.419684 13.11684 -13.87902 -7.336385e-09 22.06727 4.94282e-08 -1.264155 -16.81854 16.78593 -2.465817 -1.220696 2.905104 2.093251 9.837444 -7.883127 1.184416 22.73846 6.890327 2.915642 -21.32992 8.273167 2.84831 -16.85735 11.13721 91.22297 29.221 -22.2191 -2.780843e-09 1.494451e-09 10.16925 -16.13983 10.88753 8.030938 5.463937 -21.68915 -4.331967 -88.05066 25.78425 13.22507 8.228859e-09 -2.062954e-09 -22.78348 3.04639 12.60689 9.273427
23.8989 103.2563 327.1839 0.769336 -4.389071 1.640869 3.090387 -15.70018 2.684207 1.215264e-08 25.07851 -1.609179e-08 -4.812325 -5.951088 -4.531103 -5.191869 9.901237 -13.39236 -7.13862e-09 22.3265 4.926601e-08 -1.45629 -15.83712 17.10876 -2.42918 -1.138877 3.318612 1.868276 9.921033 -7.479131 1.209955 22.83223 6.749269 2.842196 -21.10888 8.145167 2.682988 -17.44691 11.19695 90.59749 28.97426 -20.86569 -2.69539e-09 1.432015e-09 11.32946 -16.9033 10.96973 8.65368 5.229632 -21.15731 -4.261603 -89.02688 25.64715 14.84712 8.147501e-09 -2.103691e-09 -21.29901 2.532028 12.3681 9.88299
24.1909 103.1941 332.1015 0.8788495 -4.895444 1.725707 2.985939 -11.41896 2.801843 1.237729e-08 25.80572 -1.615705e-08 -4.6541 -6.766952 -4.257684 -4.904872 6.057999 -12.85915 -6.980237e-09 22.74137 4.931377e-08 -1.691529 -14.7238 17.58226 -2.396509 -1.045049 3.833902 1.60651 10.06468 -7.024594 1.240584 23.0493 6.609883 2.774815 -20.93574 8.032351 2.504443 -18.23829 11.32223 90.32714 28.69301 -19.43307 -2.603497e-09 1.364089e-09 12.78489 -17.91055 11.10126 9.45625 4.96747 -20.61062 -4.189764 -90.65808 25.48099 16.95586 8.086351e-09 -2.172066e-09 -19.59896 1.920176 12.12919 10.66205
24.59957 103.1475 337.1155 0.9810541 -5.385744 1.746878 2.851177 -6.920725 2.912926 1.249059e-08 26.38032 -1.608547e-08 -4.452685 -7.563613 -3.941347 -4.543567 2.04597 -12.21299 -6.692152e-09 23.01436 4.899098e-08 -1.94643 -13.47507 17.95396 -2.347573 -0.9401291 4.339882 1.319754 10.14283 -6.504949 1.273452 23.11558 6.41916 2.675318 -20.61527 7.854711 2.289958 -18.93327 11.36598 89.36903 28.33773 -17.67759 -2.488423e-09 1.289455e-09 14.20047 -18.82213 11.15957 10.20963 4.66642 -19.90461 -4.088884 -91.66026 25.22416 18.87385 7.974003e-09 -2.222008e-09 -17.70948 1.287625 11.79107 11.39
25.10848 103.1201 342.1831 1.062837 -5.802319 1.706688 2.700598 -2.701968 3.006081 1.246592e-08 26.72209 -1.586864e-08 -4.227478 -8.247465 -3.614283 -4.137431 -1.688548 -11.5115 -6.294261e-09 23.10092 4.830002e-08 -2.189296 -12.22044 18.17286 -2.28636 -0.8350249 4.777523 1.039694 10.1402 -5.974535 1.304117 23.00941 6.194644 2.553451 -20.17032 7.627577 2.058963 -19.44264 11.31543 87.77606 27.9107 -15.77539 -2.361399e-09 1.216035e-09 15.40986 -19.5223 11.13724 10.82035 4.357076 -19.10574 -3.966901 -91.86027 24.93822 20.3747 7.817413e-09 -2.248382e-09 -15.82999 0.7055188 11.38563 11.97751
25.70868 103.1069 347.3013 1.134394 -6.204164 1.608686 2.550173 1.373027 3.108187 1.243525e-08 27.04393 -1.565226e-08 -4.00462 -8.904309 -3.29422 -3.701867 -5.291662 -10.81064 -5.9034e-09 23.1774 4.761537e-08 -2.427486 -11.00615 18.38447 -2.227339 -0.7328059 5.198613 0.7687572 10.13228 -5.460413 1.333255 22.8997 5.976059 2.436604 -19.73402 7.407154 1.833579 -19.92853 11.26082 86.23792 27.45 -13.94327 -2.236794e-09 1.14754e-09 16.57312 -20.19184 11.10629 11.40576 4.056684 -18.32891 -3.844282 -92.02518 24.65742 21.81167 7.665825e-09 -2.278327e-09 -14.00992 0.1483329 10.98547 12.53676
